<svg xmlns="http://www.w3.org/2000/svg" viewBox="0 0 100 100" width="512" height="512">
	<defs>
		<!-- Brand Gradient: 135deg cyan to orange -->
		<linearGradient id="brandGradient" x1="0%" y1="0%" x2="100%" y2="100%">
			<stop offset="0%" style="stop-color:#00BFFF;stop-opacity:1" />
			<stop offset="100%" style="stop-color:#FF6633;stop-opacity:1" />
		</linearGradient>
	</defs>
	
	<!-- Level Play Digital Symbol with Brand Gradient -->
	<g transform="translate(0, 0) scale(1)">
		<!-- Symbol path from logo with gradient applied -->
		<path fill="url(#brandGradient)" d="M46.4,58L46.4,58c-0.1,0-0.1,0-0.1,0v0H33.5v-6.3h12.9H47v0c16.9,0.2,32.2,7.5,42.9,19C93.1,64.6,95,57.5,95,50  c0-7.6-1.9-14.8-5.2-21C79.1,40.4,63.9,47.7,47,47.8v0h-0.6H33.5v-6.3h12.8v0c0,0,0.1,0,0.1,0h0.1c15.9,0,30.1-7,39.8-18.1  c-0.9-1.2-1.8-2.3-2.7-3.4C74.7,30.4,61.6,37,47,37.1v0h-0.4H33.5v-6.3h12.8h0.4c13,0,24.6-5.9,32.4-15.2c-1.1-0.9-2.2-1.8-3.4-2.6  C68.7,21.2,58.5,26.4,47,26.5v0H33.5v-6.3h12.8h0.4c9.3,0,17.7-4.1,23.5-10.5C64,6.7,57.2,5,50,5C25.1,5,5,25.1,5,50  c0,24.9,20.1,45,45,45c7.3,0,14.2-1.8,20.4-4.9c-5.8-6.6-14.3-10.7-23.7-10.7h-0.4H33.5v-6.3H47v0c11.6,0.1,21.9,5.4,28.8,13.7  c1.2-0.8,2.3-1.7,3.4-2.6c-7.8-9.4-19.5-15.4-32.6-15.4h-0.4H33.5v-6.3h13.1H47v0c14.7,0.1,27.9,6.8,36.7,17.2  c1-1.1,1.9-2.2,2.7-3.4C76.7,65.2,62.4,58,46.4,58z M27.4,79.3c-1.7,0-3.1-1.4-3.1-3.1c0-1.7,1.4-3.1,3.1-3.1c1.7,0,3.1,1.4,3.1,3.1  C30.5,77.9,29.1,79.3,27.4,79.3z M27.4,68.8c-1.7,0-3.1-1.4-3.1-3.1c0-1.7,1.4-3.1,3.1-3.1c1.7,0,3.1,1.4,3.1,3.1  C30.5,67.4,29.1,68.8,27.4,68.8z M27.4,58c-1.7,0-3.1-1.4-3.1-3.1c0-1.7,1.4-3.1,3.1-3.1c1.7,0,3.1,1.4,3.1,3.1  C30.5,56.6,29.1,58,27.4,58z M27.4,47.9c-1.7,0-3.1-1.4-3.1-3.1c0-1.7,1.4-3.1,3.1-3.1c1.7,0,3.1,1.4,3.1,3.1  C30.5,46.5,29.1,47.9,27.4,47.9z M27.4,37.1c-1.7,0-3.1-1.4-3.1-3.1c0-1.7,1.4-3.1,3.1-3.1c1.7,0,3.1,1.4,3.1,3.1  C30.5,35.7,29.1,37.1,27.4,37.1z M27.4,26.5c-1.7,0-3.1-1.4-3.1-3.1c0-1.7,1.4-3.1,3.1-3.1c1.7,0,3.1,1.4,3.1,3.1  C30.5,25.1,29.1,26.5,27.4,26.5z"/>
	</g>
</svg>
